# xmcd
#
# Track frame offsets:
#	182
#	18115
#	35682
#	52445
#	62555
#	77795
#	102860
#	121115
#	135145
#	179060
#	193897
#	207700
#	235742
#	252210
#	276280
#
# Disc length: 3886 seconds
#
# Revision: 1
# Processed by: cddbd v1.5.2PL0 Copyright (c) Steve Scherf et al.
# Submitted via: audiograbber 1.83.01
#
DISCID=da0f2c0f
DTITLE=The Bootleggin' Hobos (Live) - Special Blues Meals All Night...Live!
DYEAR=1993
DGENRE=Blues
TTITLE0=I'm ready
TTITLE1=Green stuff
TTITLE2=Got to love you
TTITLE3=I want to be loved
TTITLE4=Sad sad feeling
TTITLE5=I'm your hoochie coochie man
TTITLE6=Break of day
TTITLE7=I heard  you've been down
TTITLE8=Mother earth
TTITLE9=Tired of tryin'
TTITLE10=Hard to handle
TTITLE11=Whole lotta rosie
TTITLE12=Twenty-nine ways
TTITLE13=Got my mojo working
TTITLE14=Silver and gold
EXTD=
EXTT0=
EXTT1=
EXTT2=
EXTT3=
EXTT4=
EXTT5=
EXTT6=
EXTT7=
EXTT8=
EXTT9=
EXTT10=
EXTT11=
EXTT12=
EXTT13=
EXTT14=
PLAYORDER=
